<svg xmlns="http://www.w3.org/2000/svg" viewBox="0 0 568.81 312.42"><defs><style>.cls-1{fill:#00bffa;}.cls-2{fill:#018ff2;}.cls-3{fill:#015fea;}</style></defs><g id="Layer_2" data-name="Layer 2"><g id="Layer_1-2" data-name="Layer 1"><path class="cls-1" d="M305.52,125.66c-5.83,10.13-11,20.67-17.67,30.25-5.58,8.08-1.45,14.26,2.81,19.61,24.25,30.45,24.59,61.12,3.18,93.21-5.39,8.08-8.67,17.69-12.13,26.9-4,10.68-7.12,17.84-21.85,11.23-14.42-6.47-12.78-13.4-7.06-24.16,4.29-8.1,7.36-16.84,11.06-25.26,14.38-32.76,14.39-32.75-9.59-57.87-40.14-42-40.14-42-11.34-91.49,2.32-4,4.9-7.85,6.7-12,2.16-5,10.12-9.9,5.14-15.18C249.51,75.27,241.18,73.32,233,77c-13.18,5.94-26.79,11-39.53,17.8-13,6.89-14-3.39-17.56-10.6s-8.21-13.74,3.93-18.4C197,59.24,213.7,51.45,230.38,43.7a20.43,20.43,0,0,1,17.05-.63c8.58,3.31,17.06,7.28,26,9.25,27.14,6,46.18,21.56,56.4,47.1,9,22.39,24.47,32.43,48.43,29.38,16-2,20.25,5.23,18.09,20.39-1.28,9-3.5,13.24-13.09,11.65a86.31,86.31,0,0,0-15.75-1c-26.13.55-51.27-.46-56.44-37.15Z"/><path class="cls-1" d="M168.6,230c-9.15-.55-18.29-1.39-27.45-1.58-11-.24-19.41.29-18.69-16.36.75-17.43,9.41-15.23,21.22-15.6,21.61-.66,42.95,8.27,65.23-1.55,8.4-3.7,19.1,10.52,19.57,17.87.63,9.71-9.48,18.57-20.68,19.16-13,.7-26.12-1.23-39.19-2Z"/><path class="cls-1" d="M338.35,62.89A31.78,31.78,0,0,1,308.29,30.1a31.45,31.45,0,0,1,62.84,2.69A31.83,31.83,0,0,1,338.35,62.89Z"/><path class="cls-2" d="M126.46,129.18c27.06-.29,50,22.46,49.61,49.61.4,27.05-22.55,50-49.61,49.61H51.17v32H0V129.18Zm-12.79,60.74a11.16,11.16,0,0,0,11.13-11.13,11.34,11.34,0,0,0-11.13-11.23H51.17v22.36Z"/><path class="cls-2" d="M431.11,215.41v44.83H379.94V129h51.17v44.82h22.37L501.62,129h67.19l-68.07,65.62,68.07,65.63H501.62l-48.14-44.83Z"/><path class="cls-3" d="M0,274H568.81v38.38H0Z"/></g></g></svg>