<svg xmlns="http://www.w3.org/2000/svg" viewBox="0 0 1059.02 345.95"><defs><style>.cls-1{fill:#00bffa;}.cls-2{fill:#018ff2;}.cls-3{fill:#015fea;}.cls-4{fill:#fff;}</style></defs><g id="Layer_2" data-name="Layer 2"><g id="Layer_1-2" data-name="Layer 1"><path class="cls-1" d="M582.32,84.82c-3.93,6.84-7.46,14-11.93,20.42-3.76,5.45-1,9.62,1.9,13.23,16.37,20.56,16.6,41.26,2.15,62.92-3.64,5.45-5.85,11.94-8.19,18.15-2.71,7.21-4.81,12.05-14.75,7.59-9.73-4.37-8.62-9-4.77-16.31,2.9-5.47,5-11.37,7.47-17,9.7-22.11,9.71-22.11-6.48-39.06-27.09-28.38-27.09-28.38-7.65-61.76a74.5,74.5,0,0,0,4.52-8.13c1.46-3.4,6.84-6.69,3.47-10.25A12.62,12.62,0,0,0,533.35,52c-8.89,4-18.08,7.45-26.68,12-8.76,4.64-9.46-2.3-11.85-7.16s-5.54-9.28,2.65-12.42c11.59-4.44,22.87-9.7,34.13-14.93a13.76,13.76,0,0,1,11.51-.43c5.79,2.23,11.52,4.91,17.53,6.24C579,39.37,591.8,49.87,598.7,67.11c6,15.11,16.52,21.89,32.69,19.83,10.77-1.38,13.67,3.53,12.21,13.76-.86,6.08-2.36,8.94-8.83,7.86a58.12,58.12,0,0,0-10.63-.65c-17.64.37-34.61-.31-38.1-25.07Z"/><path class="cls-1" d="M489.9,153.21c-6.17-.38-12.35-.94-18.53-1.07-7.39-.16-13.1.19-12.61-11,.5-11.77,6.35-10.28,14.32-10.53,14.58-.45,29,5.58,44-1,5.67-2.49,12.89,7.1,13.21,12.06.42,6.56-6.4,12.54-14,12.94-8.77.47-17.63-.83-26.46-1.36Z"/><path class="cls-1" d="M604.48,42.45a21.45,21.45,0,0,1-20.29-22.14,21.23,21.23,0,0,1,42.42,1.82A21.5,21.5,0,0,1,604.48,42.45Z"/><path class="cls-1" d="M568.47,177.92h16a11.78,11.78,0,0,1,11.78,11.78v3.22a0,0,0,0,1,0,0H568.47a0,0,0,0,1,0,0v-15A0,0,0,0,1,568.47,177.92Z"/><path class="cls-2" d="M209.28,193.06h45.63l52.81,98.44H264.51l-7.77-16.84H207.45l-7.76,16.84H156.47Zm9.3,57.57h27l-13.48-29.07Z"/><path class="cls-2" d="M405.5,193c20.28-.22,37.5,16.85,37.2,37.21a35.84,35.84,0,0,1-5.93,20.14,37,37,0,0,1-15.53,13.48l21.46,27.61H401.83l-18.53-24H349v24H310.65V193ZM349,221.78v16.77h46.8a8.38,8.38,0,0,0,8.42-8.35,8.37,8.37,0,0,0-8.42-8.42Z"/><path class="cls-2" d="M493,257.74v33.62H454.57V192.92H493v33.62h16.77l36.11-33.62h50.39l-51.05,49.22,51.05,49.22H545.83l-36.11-33.62Z"/><path class="cls-2" d="M721.1,238.55v7.18c.14,37.2-30.18,48-67.17,48s-67.38-10.84-67.23-48v-7.18c-.15-37.28,30.17-48,67.23-48.05S721.1,201.34,721.1,238.55Zm-38.38,2.34c.22-16-13.11-19-28.79-19.19-15.74.22-29.07,3.15-28.85,19.19v2.42c-.22,16.11,13.11,19,28.85,19.26,15.68-.22,29-3.15,28.79-19.26Z"/><path class="cls-2" d="M827.88,192.92h38.46V245.8c.14,37.21-30.33,47.9-67.24,48s-67.38-10.76-67.24-48V192.92h38.38v50.46c-.14,16.19,13.11,19,28.86,19.19,15.67-.22,29-3,28.78-19.19Z"/><path class="cls-2" d="M126.46,162.52c27.06-.29,50,22.46,49.61,49.61.39,27.05-22.55,50-49.61,49.61H51.17v32H0V162.52Zm-12.79,60.74a11.16,11.16,0,0,0,11.13-11.13,11.34,11.34,0,0,0-11.13-11.23H51.17v22.36Z"/><path class="cls-2" d="M1009.41,162.52c27.05-.29,50,22.46,49.61,49.61a47.87,47.87,0,0,1-7.91,26.86,49.29,49.29,0,0,1-20.71,18L1059,293.77h-54.5l-24.7-32H934.11v32H882.94V162.52Zm-75.3,38.38v22.36h62.41a11.16,11.16,0,0,0,11.23-11.13,11.17,11.17,0,0,0-11.23-11.23Z"/><path class="cls-3" d="M0,307.57H1059V346H0Z"/><path class="cls-4" d="M146.43,336.64V323.19h-9.12V317h25.92v6.24h-9.12v13.45Z"/><path class="cls-4" d="M173.47,329.88v6.73H165.8V316.92h7.67v6.72H185v-6.72h7.69v19.69H185v-6.73Z"/><path class="cls-4" d="M197.16,317h23v5H204.83v2.52H220.2v4.55H204.83v2.52H220.2v5.06h-23Z"/><path class="cls-4" d="M254.64,316.92h7.69V327.5c0,7.44-6.06,9.58-13.45,9.59s-13.47-2.15-13.44-9.59V316.92h7.67V327c0,3.24,2.62,3.8,5.77,3.84s5.8-.6,5.76-3.84Z"/><path class="cls-4" d="M273.46,316.92v13.45h15.37v6.24h-23V316.92Z"/><path class="cls-4" d="M292.86,336.64V323.19h-9.13V317h25.93v6.24h-9.13v13.45Z"/><path class="cls-4" d="M319.9,316.92v19.69h-7.68V316.92Z"/><path class="cls-4" d="M324,316.92h9.61l7.68,9.84,7.69-9.84h9.59v19.69h-7.67V326.1l-7.7,10.51h-3.83l-7.69-10.51v10.51H324Z"/><path class="cls-4" d="M369.69,317h9.12l10.57,19.69h-8.65l-1.55-3.37h-9.86l-1.55,3.37h-8.64Zm1.86,11.51H377l-2.69-5.81Z"/><path class="cls-4" d="M393.4,336.64V323.19h-9.12V317h25.93v6.24h-9.13v13.45Z"/><path class="cls-4" d="M412.77,317h23v5H420.45v2.52h15.36v4.55H420.45v2.52h15.36v5.06h-23Z"/><path class="cls-4" d="M470,317a7.44,7.44,0,0,1,0,14.88h-11.3v4.81h-7.67V317Zm-1.92,9.11a1.61,1.61,0,0,0,1.17-.48,1.63,1.63,0,0,0,.5-1.19,1.69,1.69,0,0,0-1.67-1.68h-9.38v3.35Z"/><path class="cls-4" d="M484.65,317h9.13l10.56,19.69h-8.65l-1.55-3.37h-9.86l-1.55,3.37h-8.64Zm1.86,11.51h5.41l-2.7-5.81Z"/><path class="cls-4" d="M523.89,316.93a7.43,7.43,0,0,1,7.44,7.45,7.15,7.15,0,0,1-1.18,4,7.4,7.4,0,0,1-3.11,2.7l4.29,5.52h-8.17l-3.71-4.8H512.6v4.8h-7.68V316.93Zm-11.29,5.76v3.36H522a1.65,1.65,0,0,0,1.19-.49,1.62,1.62,0,0,0,.49-1.18,1.67,1.67,0,0,0-1.68-1.69Z"/><path class="cls-4" d="M541.38,329.88v6.73h-7.67V316.92h7.67v6.72h3.36l7.22-6.72H562l-10.21,9.84L562,336.61H552l-7.22-6.73Z"/><path class="cls-4" d="M587,326.05v1.43c0,7.44-6,9.6-13.43,9.61s-13.48-2.17-13.45-9.61v-1.43c0-7.46,6-9.6,13.45-9.61S587,318.6,587,326.05Zm-7.67.46c0-3.2-2.63-3.79-5.76-3.83s-5.82.63-5.77,3.83V327c0,3.22,2.62,3.81,5.77,3.85s5.8-.63,5.76-3.85Z"/><path class="cls-4" d="M608.37,316.92h7.69V327.5c0,7.44-6.06,9.58-13.45,9.59s-13.47-2.15-13.44-9.59V316.92h7.67V327c0,3.24,2.62,3.8,5.77,3.84s5.8-.6,5.76-3.84Z"/><path class="cls-4" d="M638.49,316.93a7.44,7.44,0,0,1,7.44,7.45,7.16,7.16,0,0,1-1.19,4,7.31,7.31,0,0,1-3.1,2.7l4.29,5.52h-8.18l-3.7-4.8h-6.86v4.8h-7.67V316.93Zm-11.3,5.76v3.36h9.36a1.63,1.63,0,0,0,1.19-.49,1.59,1.59,0,0,0,.5-1.18,1.68,1.68,0,0,0-1.69-1.69Z"/><path class="cls-4" d="M661.16,317h23.05v5H668.84v2.52h15.37v4.55H668.84v2.52h15.37v5.06H661.16Z"/><path class="cls-4" d="M706,317h9.6l-10.33,9.84,10.33,9.85H706l-5.52-5.76L695,336.64h-9.61l10.32-9.85L685.35,317H695l5.52,5.74Z"/><path class="cls-4" d="M735.64,317a7.44,7.44,0,1,1,0,14.88h-11.3v4.81h-7.67V317Zm-1.92,9.11a1.61,1.61,0,0,0,1.17-.48,1.63,1.63,0,0,0,.5-1.19,1.69,1.69,0,0,0-1.67-1.68h-9.38v3.35Z"/><path class="cls-4" d="M745.16,317h23v5H752.83v2.52H768.2v4.55H752.83v2.52H768.2v5.06h-23Z"/><path class="cls-4" d="M791.24,316.93a7.43,7.43,0,0,1,7.44,7.45,7.15,7.15,0,0,1-1.18,4,7.4,7.4,0,0,1-3.11,2.7l4.29,5.52h-8.17l-3.71-4.8H780v4.8h-7.68V316.93ZM780,322.69v3.36h9.36a1.61,1.61,0,0,0,1.18-.49,1.59,1.59,0,0,0,.5-1.18,1.67,1.67,0,0,0-1.68-1.69Z"/><path class="cls-4" d="M808.73,316.92v19.69h-7.67V316.92Z"/><path class="cls-4" d="M812.8,317h23.05v5H820.48v2.52h15.37v4.55H820.48v2.52h15.37v5.06H812.8Z"/><path class="cls-4" d="M859.12,316.92h7.69v19.69h-8.64l-10.58-12v12h-7.67V316.92h10.56l8.64,10.43Z"/><path class="cls-4" d="M896.39,328.45c-.49,6.65-6.32,8.64-13.41,8.64-7.38,0-13.47-2.15-13.44-9.61v-1.43c0-7.45,6.06-9.58,13.44-9.61,7.09,0,12.92,2,13.41,8.64h-7.87c-.72-1.93-2.9-2.39-5.54-2.39-3.13.05-5.8.6-5.75,3.84V327c-.05,3.21,2.62,3.8,5.75,3.84,2.64,0,4.84-.47,5.54-2.4Z"/><path class="cls-4" d="M898.67,317h23v5H906.35v2.52h15.36v4.55H906.35v2.52h15.36v5.06h-23Z"/></g></g></svg>