<svg xmlns="http://www.w3.org/2000/svg" xmlns:xlink="http://www.w3.org/1999/xlink" viewBox="0 0 1000 1000"><defs><style>.cls-1{fill:#00bffa;}.cls-2{fill:#018ff2;}.cls-3{fill:#015fea;}</style></defs><g id="Layer_2" data-name="Layer 2"><g id="Layer_1-2" data-name="Layer 1"><image width="1000" height="1000" xlink:href="../../../../../../../Downloads/blurry-gradient-haikei.png"/><path class="cls-1" d="M527.83,439.75c-7.68,13.34-14.57,27.24-23.29,39.86-7.35,10.64-1.91,18.79,3.7,25.84,32,40.12,32.41,80.53,4.2,122.82-7.11,10.64-11.43,23.31-16,35.44-5.29,14.07-9.39,23.51-28.79,14.8-19-8.53-16.84-17.66-9.31-31.84,5.66-10.67,9.71-22.19,14.58-33.28,18.94-43.16,19-43.16-12.64-76.25-52.89-55.4-52.89-55.39-14.94-120.56,3-5.24,6.45-10.34,8.83-15.88,2.84-6.64,13.33-13.05,6.77-20-6.93-7.35-17.9-9.92-28.72-5.05-17.36,7.83-35.3,14.56-52.08,23.47-17.11,9.07-18.47-4.48-23.14-14-4.58-9.32-10.82-18.1,5.18-24.24,22.62-8.67,44.64-18.94,66.63-29.15,7.74-3.59,14.73-3.81,22.46-.83,11.3,4.36,22.48,9.59,34.21,12.18,35.75,7.91,60.85,28.41,74.32,62.07,11.8,29.5,32.23,42.74,63.81,38.71,21-2.68,26.68,6.89,23.84,26.87-1.69,11.87-4.62,17.45-17.25,15.35a114.23,114.23,0,0,0-20.75-1.28c-34.43.73-67.56-.6-74.38-48.94Z"/><path class="cls-1" d="M347.41,577.21c-12.06-.73-24.11-1.83-36.17-2.09-14.43-.31-25.58.38-24.63-21.55,1-23,12.39-20.07,28-20.55,28.47-.88,56.6,10.88,86-2,11.06-4.87,25.16,13.86,25.78,23.54.82,12.81-12.5,24.47-27.25,25.26-17.12.91-34.42-1.63-51.65-2.66Z"/><path class="cls-1" d="M571.08,357c-22.51-.94-40.55-20.63-39.6-43.21a41.73,41.73,0,0,1,43.15-39.62c22.55.95,40.59,20.59,39.65,43.18S593.61,358,571.08,357Z"/><path class="cls-2" d="M291.89,444.39c35.64-.39,65.88,29.59,65.37,65.37.51,35.64-29.73,65.88-65.37,65.37H192.67v42.2H125.25V444.39Zm-16.86,80a14.73,14.73,0,0,0,14.67-14.67A14.94,14.94,0,0,0,275,495H192.67v29.47Z"/><path class="cls-2" d="M693.32,558v59.07H625.89v-173h67.43v59.06h29.46l63.44-59.06h88.53L785.06,530.6l89.69,86.48H786.22L722.78,558Z"/><path class="cls-3" d="M125.25,635.26h749.5v50.57H125.25Z"/></g></g></svg>